<?xml version="1.0" encoding="UTF-8"?>
<svg width="700pt" height="700pt" version="1.1" viewBox="0 0 700 700" xmlns="http://www.w3.org/2000/svg" xmlns:xlink="http://www.w3.org/1999/xlink">
 <defs>
  <symbol id="v" overflow="visible">
   <path d="m19.328-1.1562c-0.99219 0.52344-2.0273 0.91406-3.1094 1.1719-1.0859 0.25781-2.2109 0.39062-3.375 0.39062-3.5117 0-6.293-0.97656-8.3438-2.9375-2.043-1.957-3.0625-4.6133-3.0625-7.9688 0-3.3633 1.0195-6.0234 3.0625-7.9844 2.0508-1.957 4.832-2.9375 8.3438-2.9375 1.1641 0 2.2891 0.13672 3.375 0.40625 1.082 0.26172 2.1172 0.64844 3.1094 1.1562v4.3594c-1-0.6875-1.9922-1.1875-2.9688-1.5-0.98047-0.32031-2.0078-0.48438-3.0781-0.48438-1.9375 0-3.4648 0.62109-4.5781 1.8594-1.1055 1.2422-1.6562 2.9492-1.6562 5.125 0 2.168 0.55078 3.875 1.6562 5.125 1.1133 1.2422 2.6406 1.8594 4.5781 1.8594 1.0703 0 2.0977-0.16016 3.0781-0.48438 0.97656-0.32031 1.9688-0.82812 2.9688-1.5156z"/>
  </symbol>
  <symbol id="b" overflow="visible">
   <path d="m14.141-11.484c-0.4375-0.20703-0.875-0.35938-1.3125-0.45312-0.4375-0.10156-0.875-0.15625-1.3125-0.15625-1.3047 0-2.3047 0.41797-3 1.25-0.69922 0.83594-1.0469 2.0273-1.0469 3.5781v7.2656h-5.0469v-15.781h5.0469v2.5938c0.64453-1.0312 1.3906-1.7812 2.2344-2.25 0.84375-0.47656 1.8477-0.71875 3.0156-0.71875 0.17578 0 0.35938 0.007812 0.54688 0.015625 0.19531 0.011719 0.48828 0.042969 0.875 0.09375z"/>
  </symbol>
  <symbol id="a" overflow="visible">
   <path d="m18.172-7.9375v1.4375h-11.781c0.11328 1.1875 0.53516 2.0781 1.2656 2.6719 0.73828 0.59375 1.7656 0.89062 3.0781 0.89062 1.0625 0 2.1484-0.15625 3.2656-0.46875 1.1133-0.32031 2.2578-0.80078 3.4375-1.4375v3.8906c-1.1992 0.44922-2.3984 0.78906-3.5938 1.0156-1.1875 0.22656-2.3828 0.34375-3.5781 0.34375-2.8555 0-5.0742-0.72266-6.6562-2.1719-1.5859-1.457-2.375-3.4922-2.375-6.1094 0-2.5703 0.77344-4.5938 2.3281-6.0625 1.5625-1.4766 3.7031-2.2188 6.4219-2.2188 2.4883 0 4.4727 0.74609 5.9531 2.2344 1.4883 1.4922 2.2344 3.4844 2.2344 5.9844zm-5.1719-1.6719c0-0.95703-0.28125-1.7266-0.84375-2.3125-0.5625-0.59375-1.293-0.89062-2.1875-0.89062-0.98047 0-1.7773 0.27734-2.3906 0.82812-0.60547 0.55469-0.98438 1.3438-1.1406 2.375z"/>
  </symbol>
  <symbol id="h" overflow="visible">
   <path d="m9.5-7.1094c-1.0547 0-1.8438 0.18359-2.375 0.54688-0.53125 0.35547-0.79688 0.88281-0.79688 1.5781 0 0.63672 0.21094 1.1367 0.64062 1.5 0.42578 0.36719 1.0195 0.54688 1.7812 0.54688 0.94531 0 1.7422-0.33594 2.3906-1.0156 0.65625-0.6875 0.98438-1.5469 0.98438-2.5781v-0.57812zm7.7031-1.8906v9h-5.0781v-2.3438c-0.67969 0.96094-1.4453 1.6562-2.2969 2.0938-0.84375 0.4375-1.8711 0.65625-3.0781 0.65625-1.6367 0-2.9648-0.47266-3.9844-1.4219-1.0234-0.95703-1.5312-2.1953-1.5312-3.7188 0-1.8516 0.63281-3.2109 1.9062-4.0781 1.2812-0.86328 3.2812-1.2969 6-1.2969h2.9844v-0.39062c0-0.80078-0.32031-1.3828-0.95312-1.75-0.625-0.375-1.6055-0.5625-2.9375-0.5625-1.0859 0-2.0938 0.10938-3.0312 0.32812-0.92969 0.21875-1.7891 0.54297-2.5781 0.96875v-3.8438c1.0703-0.25781 2.1562-0.45703 3.25-0.59375 1.0938-0.13281 2.1797-0.20312 3.2656-0.20312 2.8516 0 4.9102 0.5625 6.1719 1.6875 1.2578 1.1172 1.8906 2.9375 1.8906 5.4688z"/>
  </symbol>
  <symbol id="d" overflow="visible">
   <path d="m7.9375-20.266v4.4844h5.2031v3.6094h-5.2031v6.6875c0 0.74219 0.14453 1.2422 0.4375 1.5 0.28906 0.25 0.86719 0.375 1.7344 0.375h2.5938v3.6094h-4.3281c-1.9922 0-3.4023-0.41406-4.2344-1.25-0.83594-0.83203-1.25-2.2422-1.25-4.2344v-6.6875h-2.5156v-3.6094h2.5156v-4.4844z"/>
  </symbol>
  <symbol id="g" overflow="visible">
   <path d="m13.156-13.469v-8.4531h5.0781v21.922h-5.0781v-2.2812c-0.6875 0.92969-1.4531 1.6094-2.2969 2.0469-0.83594 0.42578-1.7969 0.64062-2.8906 0.64062-1.9492 0-3.5469-0.76953-4.7969-2.3125-1.25-1.5508-1.875-3.5391-1.875-5.9688 0-2.4375 0.625-4.4258 1.875-5.9688 1.25-1.5391 2.8477-2.3125 4.7969-2.3125 1.082 0 2.0469 0.21875 2.8906 0.65625 0.84375 0.42969 1.6094 1.1055 2.2969 2.0312zm-3.3281 10.219c1.082 0 1.9062-0.39453 2.4688-1.1875 0.57031-0.78906 0.85938-1.9375 0.85938-3.4375s-0.28906-2.6445-0.85938-3.4375c-0.5625-0.78906-1.3867-1.1875-2.4688-1.1875-1.0625 0-1.8828 0.39844-2.4531 1.1875-0.5625 0.79297-0.84375 1.9375-0.84375 3.4375s0.28125 2.6484 0.84375 3.4375c0.57031 0.79297 1.3906 1.1875 2.4531 1.1875z"/>
  </symbol>
  <symbol id="f" overflow="visible">
   <path d="m10.828-3.25c1.0703 0 1.8906-0.39453 2.4531-1.1875 0.57031-0.78906 0.85938-1.9375 0.85938-3.4375s-0.28906-2.6445-0.85938-3.4375c-0.5625-0.78906-1.3828-1.1875-2.4531-1.1875-1.0859 0-1.918 0.39844-2.5 1.1875-0.57422 0.79297-0.85938 1.9375-0.85938 3.4375 0 1.4922 0.28516 2.6367 0.85938 3.4375 0.58203 0.79297 1.4141 1.1875 2.5 1.1875zm-3.3594-10.219c0.69531-0.92578 1.4688-1.6016 2.3125-2.0312 0.84375-0.4375 1.8164-0.65625 2.9219-0.65625 1.9375 0 3.5312 0.77344 4.7812 2.3125 1.25 1.543 1.875 3.5312 1.875 5.9688 0 2.4297-0.625 4.418-1.875 5.9688-1.25 1.543-2.8438 2.3125-4.7812 2.3125-1.1055 0-2.0781-0.21875-2.9219-0.65625s-1.6172-1.1133-2.3125-2.0312v2.2812h-5.0469v-21.922h5.0469z"/>
  </symbol>
  <symbol id="k" overflow="visible">
   <path d="m0.35938-15.781h5.0312l4.25 10.703 3.6094-10.703h5.0469l-6.6406 17.281c-0.66797 1.75-1.4492 2.9727-2.3438 3.6719-0.88672 0.70703-2.0547 1.0625-3.5 1.0625h-2.9219v-3.3125h1.5781c0.85156 0 1.4727-0.14062 1.8594-0.42188 0.39453-0.27344 0.70312-0.75781 0.92188-1.4531l0.14062-0.4375z"/>
  </symbol>
  <symbol id="j" overflow="visible">
   <path d="m11.078-12.891c0.85156 0 1.5-0.1875 1.9375-0.5625 0.44531-0.375 0.67188-0.92969 0.67188-1.6719 0-0.71875-0.22656-1.2656-0.67188-1.6406-0.4375-0.38281-1.0859-0.57812-1.9375-0.57812h-3v4.4531zm0.1875 9.2031c1.082 0 1.8984-0.22656 2.4531-0.6875 0.55078-0.46875 0.82812-1.1641 0.82812-2.0938 0-0.90625-0.27734-1.5859-0.82812-2.0469-0.54297-0.45703-1.3594-0.6875-2.4531-0.6875h-3.1875v5.5156zm5.0312-7.5781c1.1641 0.34375 2.0664 0.97656 2.7031 1.8906 0.64453 0.90625 0.96875 2.0234 0.96875 3.3438 0 2.0312-0.6875 3.5469-2.0625 4.5469-1.3672 0.99219-3.4492 1.4844-6.25 1.4844h-9v-21.031h8.1406c2.9141 0 5.0312 0.44531 6.3438 1.3281 1.3125 0.875 1.9688 2.2891 1.9688 4.2344 0 1.0234-0.24219 1.8906-0.71875 2.6094-0.48047 0.71875-1.1797 1.25-2.0938 1.5938z"/>
  </symbol>
  <symbol id="c" overflow="visible">
   <path d="m18.297-9.6094v9.6094h-5.0781v-7.3594c0-1.3633-0.03125-2.3008-0.09375-2.8125-0.0625-0.51953-0.16797-0.89844-0.3125-1.1406-0.19922-0.33203-0.46875-0.58594-0.8125-0.76562-0.33594-0.1875-0.71875-0.28125-1.1562-0.28125-1.0547 0-1.8828 0.40625-2.4844 1.2188-0.59375 0.8125-0.89062 1.9375-0.89062 3.375v7.7656h-5.0469v-15.781h5.0469v2.3125c0.75781-0.92578 1.5664-1.6016 2.4219-2.0312 0.85156-0.4375 1.7969-0.65625 2.8281-0.65625 1.8203 0 3.207 0.55859 4.1562 1.6719 0.94531 1.1172 1.4219 2.7422 1.4219 4.875z"/>
  </symbol>
  <symbol id="u" overflow="visible">
   <path d="m2.6562-21.031h5.4219v16.938h9.5156v4.0938h-14.938z"/>
  </symbol>
  <symbol id="i" overflow="visible">
   <path d="m2.4219-21.922h5.0469v11.938l5.8125-5.7969h5.8594l-7.7188 7.2344 8.3125 8.5469h-6.1094l-6.1562-6.5781v6.5781h-5.0469z"/>
  </symbol>
  <symbol id="t" overflow="visible">
   <path d="m2.4219-15.781h5.0469v15.781h-5.0469zm0-6.1406h5.0469v4.1094h-5.0469z"/>
  </symbol>
  <symbol id="s" overflow="visible">
   <path d="m12.812-21.922v3.3125h-2.7969c-0.71094 0-1.2031 0.13281-1.4844 0.39062-0.28125 0.25-0.42188 0.69922-0.42188 1.3438v1.0938h4.3125v3.6094h-4.3125v12.172h-5.0469v-12.172h-2.5156v-3.6094h2.5156v-1.0938c0-1.7188 0.47656-2.9883 1.4375-3.8125 0.95703-0.82031 2.4414-1.2344 4.4531-1.2344z"/>
  </symbol>
  <symbol id="e" overflow="visible">
   <path d="m9.9375-12.562c-1.125 0-1.9805 0.40625-2.5625 1.2188-0.58594 0.80469-0.875 1.9609-0.875 3.4688 0 1.5117 0.28906 2.668 0.875 3.4688 0.58203 0.80469 1.4375 1.2031 2.5625 1.2031 1.0938 0 1.9297-0.39844 2.5156-1.2031 0.58203-0.80078 0.875-1.957 0.875-3.4688 0-1.5078-0.29297-2.6641-0.875-3.4688-0.58594-0.8125-1.4219-1.2188-2.5156-1.2188zm0-3.5938c2.707 0 4.8281 0.73438 6.3594 2.2031 1.5312 1.4609 2.2969 3.4844 2.2969 6.0781s-0.76562 4.625-2.2969 6.0938c-1.5312 1.4609-3.6523 2.1875-6.3594 2.1875-2.7305 0-4.8672-0.72656-6.4062-2.1875-1.5312-1.4688-2.2969-3.5-2.2969-6.0938s0.76562-4.6172 2.2969-6.0781c1.5391-1.4688 3.6758-2.2031 6.4062-2.2031z"/>
  </symbol>
  <symbol id="r" overflow="visible">
   <path d="m17.047-13.156c0.64453-0.97656 1.4062-1.7227 2.2812-2.2344 0.875-0.50781 1.8359-0.76562 2.8906-0.76562 1.8125 0 3.1914 0.55859 4.1406 1.6719 0.94531 1.1172 1.4219 2.7422 1.4219 4.875v9.6094h-5.0625v-8.2344c0.007812-0.11328 0.015625-0.23828 0.015625-0.375 0.007813-0.13281 0.015625-0.32031 0.015625-0.5625 0-1.1133-0.16797-1.9219-0.5-2.4219-0.33594-0.50781-0.86719-0.76562-1.5938-0.76562-0.96094 0-1.6992 0.39844-2.2188 1.1875-0.52344 0.79297-0.79297 1.9336-0.8125 3.4219v7.75h-5.0625v-8.2344c0-1.7383-0.15234-2.8594-0.45312-3.3594-0.30469-0.50781-0.83984-0.76562-1.6094-0.76562-0.96875 0-1.7188 0.39844-2.25 1.1875-0.52344 0.79297-0.78125 1.9297-0.78125 3.4062v7.7656h-5.0781v-15.781h5.0781v2.3125c0.625-0.89453 1.3359-1.5664 2.1406-2.0156 0.80078-0.44531 1.6875-0.67188 2.6562-0.67188 1.082 0 2.0391 0.26562 2.875 0.79688 0.84375 0.52344 1.4766 1.2578 1.9062 2.2031z"/>
  </symbol>
  <symbol id="q" overflow="visible">
   <path d="m18.297-9.6094v9.6094h-5.0781v-7.3281c0-1.3828-0.03125-2.332-0.09375-2.8438-0.0625-0.51953-0.16797-0.89844-0.3125-1.1406-0.19922-0.33203-0.46875-0.58594-0.8125-0.76562-0.33594-0.1875-0.71875-0.28125-1.1562-0.28125-1.0547 0-1.8828 0.40625-2.4844 1.2188-0.59375 0.8125-0.89062 1.9375-0.89062 3.375v7.7656h-5.0469v-21.922h5.0469v8.4531c0.75781-0.92578 1.5664-1.6016 2.4219-2.0312 0.85156-0.4375 1.7969-0.65625 2.8281-0.65625 1.8203 0 3.207 0.55859 4.1562 1.6719 0.94531 1.1172 1.4219 2.7422 1.4219 4.875z"/>
  </symbol>
  <symbol id="p" overflow="visible">
   <path d="m2.6562-21.031h6.0469l7.6562 14.422v-14.422h5.1406v21.031h-6.0625l-7.6406-14.438v14.438h-5.1406z"/>
  </symbol>
  <symbol id="o" overflow="visible">
   <path d="m2.25-6.1406v-9.6406h5.0781v1.5781c0 0.85547-0.007813 1.9297-0.015625 3.2188-0.011719 1.293-0.015625 2.1523-0.015625 2.5781 0 1.2734 0.03125 2.1875 0.09375 2.75 0.070313 0.5625 0.1875 0.96875 0.34375 1.2188 0.20703 0.32422 0.47656 0.57812 0.8125 0.76562 0.33203 0.17969 0.71094 0.26562 1.1406 0.26562 1.0508 0 1.8789-0.39844 2.4844-1.2031 0.60156-0.8125 0.90625-1.9375 0.90625-3.375v-7.7969h5.0469v15.781h-5.0469v-2.2812c-0.76172 0.91797-1.5703 1.5938-2.4219 2.0312-0.84375 0.4375-1.7812 0.65625-2.8125 0.65625-1.8242 0-3.2148-0.55469-4.1719-1.6719-0.94922-1.1133-1.4219-2.7383-1.4219-4.875z"/>
  </symbol>
  <symbol id="n" overflow="visible">
   <path d="m2.6562-21.031h9c2.6758 0 4.7266 0.59375 6.1562 1.7812 1.4375 1.1875 2.1562 2.8828 2.1562 5.0781 0 2.2109-0.71875 3.9062-2.1562 5.0938-1.4297 1.1875-3.4805 1.7812-6.1562 1.7812h-3.5781v7.2969h-5.4219zm5.4219 3.9219v5.875h3c1.0508 0 1.8633-0.25391 2.4375-0.76562 0.57031-0.50781 0.85938-1.2344 0.85938-2.1719s-0.28906-1.6602-0.85938-2.1719c-0.57422-0.50781-1.3867-0.76562-2.4375-0.76562z"/>
  </symbol>
  <symbol id="m" overflow="visible">
   <path d="m2.4219-15.781h5.0469v15.5c0 2.1133-0.51172 3.7266-1.5312 4.8438-1.0117 1.1133-2.4805 1.6719-4.4062 1.6719h-2.4844v-3.3125h0.875c0.95703 0 1.6133-0.21875 1.9688-0.65625 0.35156-0.42969 0.53125-1.2773 0.53125-2.5469zm0-6.1406h5.0469v4.1094h-5.0469z"/>
  </symbol>
  <symbol id="l" overflow="visible">
   <path d="m15.172-15.297v4.125c-0.6875-0.46875-1.375-0.81641-2.0625-1.0469-0.6875-0.22656-1.4023-0.34375-2.1406-0.34375-1.418 0-2.5156 0.41406-3.2969 1.2344-0.78125 0.82422-1.1719 1.9766-1.1719 3.4531 0 1.4688 0.39062 2.6172 1.1719 3.4375 0.78125 0.82422 1.8789 1.2344 3.2969 1.2344 0.78125 0 1.5234-0.11328 2.2344-0.34375 0.71875-0.23828 1.375-0.58594 1.9688-1.0469v4.125c-0.78125 0.29297-1.5781 0.50781-2.3906 0.65625-0.8125 0.14453-1.6328 0.21875-2.4531 0.21875-2.8438 0-5.0742-0.72656-6.6875-2.1875-1.6055-1.457-2.4062-3.4883-2.4062-6.0938 0-2.6016 0.80078-4.6328 2.4062-6.0938 1.6133-1.457 3.8438-2.1875 6.6875-2.1875 0.82031 0 1.6328 0.074219 2.4375 0.21875 0.8125 0.14844 1.6133 0.35938 2.4062 0.64062z"/>
  </symbol>
 </defs>
 <g>
  <path d="m337.3 196.69c-0.63281 0.63672-1.375 1.1445-2.1953 1.5039 1.9609 2.6953 3.8867 5.5234 5.7734 8.4883v-0.003906c1.5312 2.6328 3.7344 4.8125 6.3789 6.3242 2.6445 1.5117 5.6406 2.2969 8.6875 2.2773h0.46484c3.1875-0.089844 6.293-1.0234 9-2.707 2.707-1.6836 4.9219-4.0547 6.4141-6.875 1.5391-3.2383 3.2734-6.3828 5.1953-9.4102-0.83594-0.30859-1.6016-0.77734-2.2539-1.3867-4.9023-4.4805-11.312-6.957-17.953-6.9258-7.4297 0.085938-14.492 3.2422-19.512 8.7148z"/>
  <path d="m293.36 165.23c12.426 5.0938 23.637 12.742 32.91 22.457 0.19531-0.31641 0.42578-0.60938 0.69141-0.86719 7.7734-8.1875 18.559-12.84 29.848-12.875 10.254-0.039062 20.141 3.8203 27.652 10.797l0.92188 1.0391h0.003906c8.6719-9.5078 19.504-16.793 31.578-21.246 8.0859-2.8398 15.098-8.1055 20.078-15.082 4.9805-6.9727 7.6875-15.316 7.75-23.887v-29.906l-2.5977-77.996c-0.12109-4.4531-2.1953-8.6328-5.6719-11.422-3.4766-2.793-8.0039-3.9141-12.383-3.0703-4.375 0.84375-8.1602 3.5664-10.352 7.4492l-26.672 46.535-30.484 11.547-30.484-11.547-26.668-46.535c-2.1875-3.8828-5.9766-6.6055-10.352-7.4492-4.3789-0.84375-8.9062 0.27734-12.383 3.0703-3.4727 2.7891-5.5469 6.9688-5.668 11.422l-2.5977 77.996v31.352c-0.097656 8.1172 2.2148 16.078 6.6445 22.883 4.4297 6.8008 10.773 12.137 18.234 15.336zm89.66-38.219c2.3633-4.2812 5.9844-7.7305 10.371-9.8906 4.3867-2.1562 9.332-2.918 14.164-2.1758 3.1875 0.49219 5.3711 3.4805 4.8789 6.668-0.49609 3.1875-3.4805 5.3711-6.668 4.8789-4.957-0.87891-9.9336 1.4258-12.469 5.7734-0.99609 1.918-2.9805 3.1211-5.1406 3.1172-0.90625 0.015626-1.8008-0.20312-2.5977-0.63672-2.832-1.4414-3.9648-4.8984-2.5391-7.7344zm-77.359-12.066h-0.003906c4.8359-0.75 9.7812 0.007813 14.172 2.1641 4.3867 2.1602 8.0078 5.6172 10.367 9.9023 1.4258 2.8359 0.28906 6.293-2.543 7.7344-0.79688 0.43359-1.6914 0.65234-2.5977 0.63672-2.1602 0.003907-4.1445-1.1992-5.1367-3.1172-2.5977-4.25-7.4883-6.5273-12.414-5.7734-3.1875 0.50781-6.1836-1.6641-6.6953-4.8516s1.6602-6.1875 4.8477-6.6953z"/>
  <path d="m543.05 496.5c-15.125-26.383-39.316-43.703-71.703-51.957l8.5469 21.934c0.69922 1.9922 0.25391 4.207-1.1562 5.7734l-22.457 24.422 27.711 32.617h2.1953c10.688-1.1992 21.5-0.71094 32.039 1.4453 4.2734 0.96484 8.7383 0.66016 12.844-0.875 4.1016-1.5391 7.6641-4.2461 10.25-7.7852 2.7812-3.6172 4.4336-7.9727 4.7383-12.527 0.30859-4.5508-0.73828-9.0898-3.0078-13.047z"/>
  <path d="m444.22 492.8 23.438-25.172-9.6992-25.461c-3.9844-0.69141-7.9688-1.2109-11.949-1.6758-1.7305 0-3.5234 0-5.2539-0.34766-1.7305-0.34766-4.9062-0.40234-7.3906-0.51953h-13.219-8.4297-5.3672l-5.1367 0.40234c-16.164 1.2109-31.289 3.4648-43.586 5.7734-9.1797 1.6758-17.898 3.4062-25.633 4.9648h-1.5c-8.6016 1.7305-15.992 3.2344-21.996 4.2148-2.0195 0-4.0977 0.51953-6.0625 0.69141h-0.57812l-0.92578 0.007813c-15.129 1.9102-30.363 2.8359-45.609 2.7695-18.996 0.042969-37.973-1.1719-56.809-3.6367-3.1875-0.46094-5.3984-3.4219-4.9375-6.6094 0.46484-3.1914 3.4219-5.3984 6.6133-4.9375 31.312 3.9688 62.973 4.4336 94.391 1.3867-10.566-59.523-61.602-63.504-63.852-63.504v-0.003907c-3.1875-0.20703-5.6055-2.957-5.3984-6.1484 0.20703-3.1875 2.9609-5.6016 6.1484-5.3945 0.63672 0 62.695 4.8477 74.59 73.84h0.63672c3.9844-0.63672 8.7188-1.5 14.027-2.5977-29.039-42.957-31.348-130.13-31.348-134.05 0-3.1914 2.582-5.7734 5.7734-5.7734 3.1875 0 5.7734 2.582 5.7734 5.7734 0 0.98047 2.4844 93.871 32.273 132.27l15.703-3.0586c-15.125-47.281-8.1992-176.49-7.8516-182.26l-0.003907-0.003906c0.17578-3.1875 2.9023-5.6289 6.0898-5.4531 3.1914 0.17578 5.6328 2.9023 5.457 6.0898-2.4258 45.328-2.3281 90.758 0.28906 136.07l42.316-72.223c15.605-26.559 23.297-57.027 22.172-87.809l-2.0195-52.652h-0.003907c-14.617 7.0234-26.449 18.754-33.598 33.309-2.4531 4.6367-6.0898 8.5391-10.543 11.309-4.4531 2.7695-9.5625 4.3047-14.801 4.4531h-0.75391c-10.277 0.035156-19.797-5.3945-24.996-14.258-9.5039-16.5-24.203-29.391-41.797-36.66-2.8242-1.168-5.5273-2.6016-8.082-4.2734-27.582 48.176-58.164 94.566-91.566 138.9-22.773 28.914-35.195 64.629-35.273 101.44v10.336-0.003906c-0.80859 34.176 11.98 67.277 35.562 92.027 28.348 28.867 67.777 42.781 122.74 42.781v-0.003907c38.395-0.75391 76.598-5.5938 113.96-14.434 14.461-4.6289 29.188-8.3711 44.105-11.199l-26.27-30.945h0.003906c-1.9375-2.2422-1.8633-5.582 0.17188-7.7344z"/>
  <use x="70" y="646.597656" xlink:href="#v"/>
  <use x="91.183594" y="646.597656" xlink:href="#b"/>
  <use x="105.421875" y="646.597656" xlink:href="#a"/>
  <use x="124.996094" y="646.597656" xlink:href="#h"/>
  <use x="144.476562" y="646.597656" xlink:href="#d"/>
  <use x="158.273438" y="646.597656" xlink:href="#a"/>
  <use x="177.851562" y="646.597656" xlink:href="#g"/>
  <use x="208.566406" y="646.597656" xlink:href="#f"/>
  <use x="229.226562" y="646.597656" xlink:href="#k"/>
  <use x="258.09375" y="646.597656" xlink:href="#j"/>
  <use x="280.097656" y="646.597656" xlink:href="#a"/>
  <use x="299.671875" y="646.597656" xlink:href="#b"/>
  <use x="313.910156" y="646.597656" xlink:href="#c"/>
  <use x="334.460937" y="646.597656" xlink:href="#g"/>
  <use x="365.171875" y="646.597656" xlink:href="#u"/>
  <use x="383.566406" y="646.597656" xlink:href="#h"/>
  <use x="403.042969" y="646.597656" xlink:href="#i"/>
  <use x="422.242188" y="646.597656" xlink:href="#a"/>
  <use x="441.820312" y="646.597656" xlink:href="#c"/>
  <use x="462.367188" y="646.597656" xlink:href="#f"/>
  <use x="483.03125" y="646.597656" xlink:href="#b"/>
  <use x="497.265625" y="646.597656" xlink:href="#t"/>
  <use x="507.160156" y="646.597656" xlink:href="#c"/>
  <use x="527.710938" y="646.597656" xlink:href="#i"/>
  <use x="70" y="675.464844" xlink:href="#s"/>
  <use x="82.558594" y="675.464844" xlink:href="#b"/>
  <use x="96.792969" y="675.464844" xlink:href="#e"/>
  <use x="116.625" y="675.464844" xlink:href="#r"/>
  <use x="156.753906" y="675.464844" xlink:href="#d"/>
  <use x="170.550781" y="675.464844" xlink:href="#q"/>
  <use x="191.101562" y="675.464844" xlink:href="#a"/>
  <use x="220.730469" y="675.464844" xlink:href="#p"/>
  <use x="244.886719" y="675.464844" xlink:href="#e"/>
  <use x="264.71875" y="675.464844" xlink:href="#o"/>
  <use x="285.269531" y="675.464844" xlink:href="#c"/>
  <use x="315.867188" y="675.464844" xlink:href="#n"/>
  <use x="337.023437" y="675.464844" xlink:href="#b"/>
  <use x="351.261719" y="675.464844" xlink:href="#e"/>
  <use x="371.089844" y="675.464844" xlink:href="#m"/>
  <use x="380.984375" y="675.464844" xlink:href="#a"/>
  <use x="400.5625" y="675.464844" xlink:href="#l"/>
  <use x="417.675781" y="675.464844" xlink:href="#d"/>
 </g>
</svg>
